<svg width="37" height="49" viewBox="0 0 37 49" xmlns="http://www.w3.org/2000/svg">

 <g>
  <title>Layer 1</title>
  <path id="svg_1" fill="#3CB156" d="m18.5,0c-10.20098,0 -18.5,8.43661 -18.5,18.8063c0,4.1428 1.29967,8.072 3.7583,11.363c2.20788,2.9555 5.27657,5.2115 8.7085,6.4185l4.4573,11.3276c0.2579,0.6551 0.8819,1.0846 1.5759,1.0846c0.694,0 1.318,-0.4295 1.5759,-1.0846l4.4573,-11.3276c3.4319,-1.207 6.5006,-3.463 8.7085,-6.4185c2.4586,-3.291 3.7583,-7.2202 3.7583,-11.363c0,-10.36969 -8.299,-18.8063 -18.5,-18.8063zm0,11.9913c3.6966,0 6.7041,3.0572 6.7041,6.8152c0,3.7578 -3.0073,6.8153 -6.7041,6.8153c-3.6966,0 -6.7041,-3.0573 -6.7041,-6.8153c0,-3.758 3.0075,-6.8152 6.7041,-6.8152z"/>
  <ellipse ry="8.93803" rx="8.84954" id="svg_4" cy="19.27877" cx="18.94247" opacity="undefined" fill-opacity="null" stroke-opacity="null" stroke-dasharray="null" stroke-width="null" stroke="null" fill="#3CB156"/>
 </g>
</svg>